<svg width="2877" height="450" viewBox="0 0 2877 450" fill="none" xmlns="http://www.w3.org/2000/svg">
<path fill-rule="evenodd" clip-rule="evenodd" d="M0 301V444C0 447.314 2.68629 450 6 450H519.901C533.35 450 544.253 439.097 544.253 425.648V414.897C544.253 407.386 550.342 401.297 557.853 401.297C565.365 401.297 571.454 407.386 571.454 414.897V435.727C571.454 443.61 577.844 450 585.727 450C593.61 450 600 443.61 600 435.727V301C600 134.762 466 0 300 0C134 0 0 134.762 0 301Z" fill="#E7D5C7"/>
<path fill-rule="evenodd" clip-rule="evenodd" d="M301 129C362.801 129 413 179.144 413 241C413 302.856 362.856 353 301 353H195C191.686 353 189 350.314 189 347V241C189 179 239.199 129 301 129ZM248 208C248 206.343 249.343 205 251 205H350C351.657 205 353 206.343 353 208V210C353 211.657 351.657 213 350 213H251C249.343 213 248 211.657 248 210V208ZM251 238C249.343 238 248 239.343 248 241V243C248 244.657 249.343 246 251 246H350C351.657 246 353 244.657 353 243V241C353 239.343 351.657 238 350 238H251ZM248 274C248 272.343 249.343 271 251 271H350C351.657 271 353 272.343 353 274V276C353 277.657 351.657 279 350 279H251C249.343 279 248 277.657 248 276V274ZM499 240C505.075 240 510 235.075 510 229C510 222.925 505.075 218 499 218C492.925 218 488 222.925 488 229C488 235.075 492.925 240 499 240Z" fill="url(#paint0_linear)"/>
<path opacity="0.75" fill-rule="evenodd" clip-rule="evenodd" d="M2446.92 398.735C2476.59 398.735 2502.02 386.789 2517.43 372.532C2521.28 369.449 2525.91 362.513 2528.61 357.889C2527.84 362.899 2527.45 369.835 2527.45 373.688V383.707C2527.45 392.569 2533.62 397.964 2544.02 397.964C2554.04 397.964 2560.2 392.569 2560.2 381.395V272.731C2560.2 249.225 2551.34 239.207 2528.61 239.207H2466.57C2456.16 239.207 2451.15 246.528 2451.15 256.161C2451.15 265.795 2456.16 272.345 2466.57 272.345H2517.05C2525.14 272.345 2527.06 276.584 2527.06 283.135V291.612C2527.06 336.696 2490.46 365.211 2447.69 365.211C2389.89 365.211 2350.2 320.897 2350.2 243.06C2350.2 168.305 2387.19 120.524 2446.14 120.524C2488.92 120.524 2508.18 143.259 2518.59 166.379C2522.06 174.085 2527.84 176.783 2534.39 176.783C2537.47 176.783 2540.94 176.012 2544.02 174.856C2550.18 172.544 2555.96 167.149 2555.96 159.443C2555.96 156.745 2555.58 154.433 2554.04 151.351C2540.55 122.451 2510.11 87 2445.76 87C2361.76 87 2311.66 152.507 2311.66 242.675C2311.66 335.925 2362.14 398.735 2446.92 398.735ZM1986 379.853C1986 390.257 1978.29 395.267 1968.28 395.267C1957.87 395.267 1950.17 390.257 1950.17 379.853V273.116C1950.17 224.583 1953.8 164.832 1955.7 133.662L1955.7 133.66L1955.7 133.636C1955.94 129.675 1956.16 126.176 1956.33 123.221C1949.01 147.883 1930.13 202.985 1919.72 229.188L1860 377.541C1854.6 390.643 1847.67 395.267 1835.34 395.267C1823.39 395.267 1816.07 390.643 1810.67 377.156L1752.49 231.115C1741.31 203.371 1722.82 147.497 1715.5 123.607C1715.74 128.925 1716.14 136.259 1716.63 145.033C1718.41 177.578 1721.28 229.936 1721.28 272.731V379.853C1721.28 390.257 1713.96 395.267 1703.17 395.267C1692.76 395.267 1685.44 390.257 1685.44 379.853V113.203C1685.44 99.3307 1695.46 90.468 1710.1 90.468C1727.06 90.468 1735.15 96.6333 1740.93 110.891L1811.83 288.915C1819.54 307.796 1832.25 344.017 1835.72 360.587C1839.57 343.632 1851.13 310.108 1860 288.144L1929.74 111.661C1935.91 96.248 1944.77 90.468 1961.73 90.468C1975.98 90.468 1986 99.3307 1986 113.203V379.853ZM2267.9 376C2267.9 385.248 2262.51 392.955 2252.49 392.955H2103.36C2076 392.955 2064.06 381.009 2064.06 351.724V134.396C2064.06 104.725 2076 92.78 2103.36 92.78H2249.02C2259.04 92.78 2264.43 99.716 2264.43 109.349C2264.43 118.983 2259.04 126.304 2249.02 126.304H2113.38C2104.13 126.304 2100.28 130.543 2100.28 139.791V219.555H2231.68C2241.31 219.555 2246.71 226.491 2246.71 236.124C2246.71 244.987 2240.93 252.308 2231.68 252.308H2100.28V347.1C2100.28 355.963 2106.06 359.431 2114.54 359.431H2252.49C2262.51 359.431 2267.9 366.367 2267.9 376ZM2855.59 395.652C2857.9 395.652 2860.21 395.267 2862.52 394.496C2870.23 392.569 2876.4 386.789 2876.4 379.083C2876.4 376.771 2876.01 374.844 2874.86 372.532L2770.04 108.579C2765.04 95.4773 2755.02 90.468 2742.69 90.468C2730.74 90.468 2721.11 95.4773 2716.1 108.579L2611.29 371.761C2610.52 374.073 2610.13 376 2610.13 378.312C2610.13 385.633 2615.91 392.184 2623.62 394.111C2626.32 394.881 2628.63 395.267 2631.32 395.267C2637.88 395.267 2643.66 392.184 2646.35 384.477L2676.02 305.099H2809.35L2839.79 384.863C2842.49 392.184 2848.65 395.652 2855.59 395.652ZM2755.02 160.599L2797.79 272.731H2687.58L2731.13 160.984C2735.75 149.424 2739.6 137.093 2743.07 123.992C2746.54 137.093 2750.78 149.424 2755.02 160.599Z" fill="#7C171D"/>
<path fill-rule="evenodd" clip-rule="evenodd" d="M1038.96 243.06C1038.96 337.852 987.328 399.12 904.867 399.12C822.405 399.12 770 338.237 770 242.675C770 148.268 822.02 87 904.867 87C987.328 87 1038.96 147.883 1038.96 243.06ZM808.148 243.06C808.148 317.429 845.911 365.596 904.867 365.596C964.979 365.596 1000.81 318.2 1000.81 240.748C1000.81 167.92 963.437 120.139 904.867 120.139C845.14 120.139 808.148 168.691 808.148 243.06ZM1336.27 394.496C1333.96 395.267 1331.65 395.652 1329.34 395.652C1322.4 395.652 1316.24 392.184 1313.54 384.863L1283.1 305.099H1149.77L1120.1 384.477C1117.41 392.184 1111.63 395.267 1105.07 395.267C1102.38 395.267 1100.07 394.881 1097.37 394.111C1089.66 392.184 1083.88 385.633 1083.88 378.312C1083.88 376 1084.27 374.073 1085.04 371.761L1189.85 108.579C1194.86 95.4773 1204.49 90.468 1216.44 90.468C1228.77 90.468 1238.79 95.4773 1243.79 108.579L1348.61 372.532C1349.76 374.844 1350.15 376.771 1350.15 379.083C1350.15 386.789 1343.98 392.569 1336.27 394.496ZM1204.88 160.984L1161.33 272.731H1271.54L1228.77 160.599C1224.53 149.424 1220.29 137.093 1216.82 123.992C1213.35 137.093 1209.5 149.424 1204.88 160.984ZM1620.87 391.799C1617.4 394.496 1613.55 395.652 1609.31 395.652C1604.3 395.652 1598.91 393.34 1595.82 389.101L1486.78 244.216L1444.77 286.988V379.468C1444.77 389.872 1437.07 395.267 1426.66 395.267C1415.87 395.267 1408.17 389.872 1408.17 379.468V106.267C1408.17 95.4773 1415.87 90.468 1426.66 90.468C1437.07 90.468 1444.77 95.4773 1444.77 106.267V240.748L1584.26 95.092C1587.35 91.624 1591.97 90.0827 1596.21 90.0827C1600.83 90.0827 1605.46 91.624 1608.93 94.7067C1613.16 98.1747 1615.48 103.955 1615.48 109.349C1615.48 113.203 1614.32 117.056 1611.62 119.753L1512.21 219.94L1625.88 366.367C1628.19 369.449 1629.35 372.917 1629.35 376.385C1629.35 382.165 1625.88 387.945 1620.87 391.799Z" fill="#7C171D"/>
<defs>
<linearGradient id="paint0_linear" x1="349.5" y1="465" x2="559.744" y2="163.712" gradientUnits="userSpaceOnUse">
<stop stop-color="#1B0058"/>
<stop offset="1" stop-color="#7C171D"/>
</linearGradient>
</defs>
</svg>
